<svg xmlns="http://www.w3.org/2000/svg" width="109" height="29" fill="none"><path fill-rule="evenodd" clip-rule="evenodd" d="M108 23v5h-9a3 3 0 0 1-3-3V13h-6V8h6V0h5v8h7v5h-7v9l1 1h6Zm-98 6 6-2 2-5-2-4-5-2-4-1-1-1 1-1 2-1 2 1 2 1 4-1-1-2-1-2-3-1a10 10 0 0 0-8 1l-2 2-1 3 2 4 6 2h2l1 1h1v1l-1 1-2 1-3-1-2-2-4 1v2l2 2 3 2 4 1Zm22 0c3 0 5-1 7-3 2-1 3-3 3-5l-5-2-1 4-4 1-2-1a5 5 0 0 1-3-2v-5l1-2a5 5 0 0 1 4-2l4 2 1 3 5-2c0-2-1-4-3-5-2-2-4-2-7-2h-4a10 10 0 0 0-6 10l1 5a9 9 0 0 0 5 5l4 1Zm27-1a11 11 0 0 1-12-2l-2-3-1-5 1-4a10 10 0 0 1 6-6 11 11 0 0 1 11 2l2 4 1 4-1 5a9 9 0 0 1-5 5Zm-4-4-2-1a5 5 0 0 1-4-5l1-3a5 5 0 0 1 3-2 6 6 0 0 1 5 1l1 1 1 3-1 3a5 5 0 0 1-2 2l-2 1Zm26 4a11 11 0 0 1-11-2l-2-3-1-5 1-4a10 10 0 0 1 5-6 11 11 0 0 1 12 2l2 4 1 4-1 5a9 9 0 0 1-6 5Zm-4-4-2-1a5 5 0 0 1-3-5v-3a5 5 0 0 1 3-2 6 6 0 0 1 6 1l1 1 1 3-1 3a5 5 0 0 1-3 2l-2 1Z" fill="#fff"/></svg>